**ABCDEFGHIJKLMNOPQRSTUVWXYZabcdefghijklmnopqrstuvwxyz**************************
**PARASOLID !"#$%&'()*+,-./:;<=>?@[\]^_`{|}~0123456789**************************
**PART1;
MC=unknown;
MC_MODEL=unknown;
MC_ID=unknown;
OS=unknown;
OS_RELEASE=unknown;
FRU=Parasolid 34.1.198;
APPL=Onshape;
SITE=unknown;
USER=unknown;
FORMAT=text;
GUISE=transmit;
KEY=BTGapi::writeModels_.xmt;
FILE=BTGapi::writeModels_.xmt;
DATE=2022-04-30T11:20:53 (UTC);
**PART2;
SCH=SCH_3401198_34101;
USFLD_SIZE=0;
**PART3;
**END_OF_HEADER*****************************************************************
T51 : TRANSMIT FILE created by modeller version 340119823 SCH_3401198_34101_1300
6231 0 12 36 CCCI7 lattice222 0 CCCI4 mesh1006 0 I8 polyline1008 0 CCCCCCCDI5 ow
ner1040 0 CCCI16 boundary_lattice222 0 CCCI13 boundary_mesh1006 0 I17 boundary_p
olyline1008 0 CCCA16 index_map_offset0 0 1 dA9 index_map82 0 A17 node_id_index_m
ap82 0 A20 schema_embedding_map82 0 A5 child12 0 A14 lowest_node_id0 0 1 dA16 me
sh_offset_data206 0 Z1 328 2 3 0 0 0 0 0 0 0 1e3 1e-8 0 4 0 1 0 1 1 5 0 6 7 8 0
 0 9 10 11 0 0 0 0 0 0 0 81 255 1 2 320 12 1 13 0 0 0 14 70 11 CI9 list_type0 0
 1 uI10 notransmit0 0 1 lCCCDCCDI12 finger_index0 0 1 dI12 finger_block1012 0 CZ
3 0 4 T1 0 0 5 20 1 15 15 13 255 5 234 0 1 0 16 0 0 17 0 51 255 6 229 0 18 19 0
 0 --.00838025094421482 .1036557826128872 -.0277272716435519 0 0 -1 .00136363868
0207432 -1 0 0 30 255 7 233 0 10 20 0 0 +-.004057269543409355 .1022511652924798
 -.0277272716435519 0 0 -1 29 255 8 200 0 21 22 0 -.03495896743102505 .007145509
80112769 -.02954545346173375 19 9 CCCCCCI5 frame230 0 CA5 owner12 0 Z9 105 0 1 1
7 0 23 0 V0 16 255 10 207 24 ?25 0 26 7 0 0 1 18 255 11 99 27 28 0 29 30 ?1 81 1
 27 289 31 11 0 0 32 33 34 17 255 28 0 35 36 37 11 38 39 0 40 +18 29 94 41 38 11
 42 43 ?1 29 30 101 0 11 43 44 -.03495896743102505 .00714550980112769 -.02772727
16435519 29 43 96 0 29 45 30 -.0436049361120571 .00995475544848225 -.02772727164
35519 29 44 203 0 46 30 47 -.004057269543409355 .1022511652924798 -.029545453461
73375 18 46 189 33 25 48 0 44 ?1 29 47 202 0 48 44 22 -.01270323737778446 .10506
040670655 -.02954545346173375 18 48 185 49 50 51 46 47 ?1 29 22 201 0 51 47 8 -.
0436049361120571 .00995475544848225 -.02954545346173375 18 51 181 52 53 21 48 22
 ?1 81 1 52 286 31 51 0 0 54 41 55 17 53 0 56 50 57 51 58 59 0 60 -18 21 177 32
 61 62 51 8 ?1 81 1 32 288 31 21 0 0 41 27 63 17 61 0 64 65 66 21 40 67 0 58 +18
 62 84 68 69 42 21 70 ?1 81 1 68 291 31 62 0 0 33 49 71 17 69 0 64 66 65 62 25 1
0 0 72 -18 42 89 73 74 29 62 45 ?1 29 70 86 0 62 0 45 -.004057269543409355 .1022
511652924798 -.0277272716435519 29 45 91 0 42 70 43 -.01270323737778446 .1050604
0670655 -.0277272716435519 81 1 73 293 31 42 0 0 49 75 76 17 74 0 77 78 79 42 37
 80 0 81 -15 255 77 210 0 82 83 0 17 78 0 77 82 74 48 84 26 0 85 +17 79 0 77 74
 82 29 60 86 0 0 -17 37 0 35 28 81 29 74 80 0 79 +16 80 54 87 ?37 39 88 89 0 0 1
 17 81 0 35 37 36 42 72 88 0 84 +15 35 13 0 36 90 0 17 36 0 35 81 28 62 66 91 0
 0 -17 72 0 92 25 84 62 81 88 0 36 -16 88 49 93 ?81 80 91 94 0 0 1 17 84 0 92 72
 85 42 78 26 0 0 -15 92 212 0 85 95 0 17 85 0 92 84 25 48 96 97 0 0 +16 26 206 9
8 ?78 10 86 20 0 0 1 81 1 98 297 31 26 0 0 24 99 100 16 86 205 75 ?60 26 67 101
 0 0 1 30 20 232 0 26 101 7 0 +-.01270323737778446 .10506040670655 -.02772727164
35519 0 0 -1 30 101 231 0 86 102 20 0 +-.0436049361120571 .00995475544848225 -.0
277272716435519 0 0 -1 30 102 230 0 67 103 101 0 +-.03495896743102505 .007145509
80112769 -.0277272716435519 0 0 -1 16 67 204 104 ?61 86 39 102 0 0 1 134 255 103
 194 0 59 105 102 0 +106 107 16 59 153 99 ?58 108 109 103 0 0 1 30 105 195 0 109
 110 103 0 +-.0281540867449208 .0575075810775161 -.02954545346173375 -.309016989
105901 -.951056518007171 0 136 255 106 3 4 4 2 5 FFT4 111 112 113 135 255 107 1
 0 45 255 16 111 -.0436049361120571 .00995475544848225 -.02954545346173375 1 -.0
1547139470621235 .000436262426986878 -.00984848507873236 .3333333533529205 -.012
58940514586834 -.000500152788797975 -.00984848507873236 .3333333533529205 -.0349
5896743102505 .00714550980112769 -.02954545346173375 1 127 255 4 112 4 4 0 0 128
 255 4 113 0 1 ??16 109 157 114 ?82 59 97 105 0 0 1 134 110 196 0 97 115 105 0 +
116 117 16 97 161 118 ?85 109 119 110 0 0 1 30 115 197 0 119 120 110 0 +-.019508
1184872172 .0546983375468037 -.02954545346173375 -.3090169690065075 -.9510565245
37859 0 136 116 3 4 4 2 5 FFT4 121 122 123 135 117 1 0 45 16 121 -.0040572695434
09355 .1022511652924798 -.02954545346173375 1 -.0004160140158539765 .03696576842
735075 -.0098485008439564 .3333338869451385 -.003298003293979015 .03790218223204
08 -.0098485008439564 .3333338869451385 -.01270323737778446 .10506040670655 -.02
954545346173375 1 127 4 122 4 4 0 0 128 4 123 0 1 ??16 119 165 124 ?57 97 125 11
5 0 0 1 31 255 120 198 0 125 126 115 0 +-.0392819536326147 .00855013240719107 -.
02954545346173375 0 0 1 1 0 0 .001363636165981656 16 125 169 127 ?128 119 129 12
0 0 0 1 31 126 199 0 129 130 120 0 +-.00838025094421482 .1036557826128872 -.0295
4545346173375 0 0 1 1 0 0 .001363638680207432 16 129 173 131 ?132 125 0 126 0 0
 1 134 130 61 0 39 89 126 133 +134 135 16 39 59 136 ?28 67 80 130 0 0 1 30 89 56
 0 80 94 130 0 +-.0281540867449208 .0575075810775161 -.0277272716435519 -.309016
989105901 -.951056518007171 0 141 255 133 137 133 133 130 136 134 3 4 4 2 5 FFT4
 138 139 140 135 135 2 0 45 16 138 -.0436049361120571 .00995475544848225 -.02772
72716435519 1 -.01547139470621235 .000436262426986878 -.00924242443627251 .33333
33533529205 -.01258940514586834 -.000500152788797975 -.00924242443627251 .333333
3533529205 -.03495896743102505 .00714550980112769 -.0277272716435519 1 127 4 139
 4 4 0 0 128 4 140 0 1 ??67 255 137 224 0 141 142 143 0 +130 0 0 -1 ?14 255 141
 209 144 ?90 18 145 5 137 -0 0 90 18 23 50 255 142 193 0 146 147 137 0 +-.023831
10370653285 .0561029570537841 -.02954545346173375 0 0 1 1 0 0 50 143 225 0 83 13
7 148 0 +-.0281540867449208 .0575075810775161 -.0277272716435519 .95105651800717
1 -.309016989105901 0 .309016989105901 .951056518007171 0 14 83 211 149 ?150 95
 77 5 143 -0 0 150 95 23 67 148 226 0 95 143 151 0 +94 0 0 -1 ?14 95 213 152 ?83
 16 92 5 148 -0 0 83 16 23 50 151 227 0 16 148 19 0 +-.0195081184872172 .0546983
375468037 -.0277272716435519 .951056524537859 -.3090169690065075 0 .309016969006
5075 .951056524537859 0 134 94 51 0 88 153 89 154 +155 156 30 153 46 0 91 157 94
 0 +-.0195081184872172 .0546983375468037 -.0277272716435519 -.3090169690065075 -
.951056524537859 0 141 154 148 154 154 94 136 155 3 4 4 2 5 FFT4 158 159 160 135
 156 2 0 45 16 158 -.004057269543409355 .1022511652924798 -.0277272716435519 1 -
.0004160140158539765 .03696576842735075 -.00924243923132887 .3333338869451385 -.
003298003293979015 .0379021822320408 -.00924243923132887 .3333338869451385 -.012
70323737778446 .10506040670655 -.0277272716435519 1 127 4 159 4 4 0 0 128 4 160
 0 1 ??16 91 44 161 ?66 88 162 153 0 0 1 31 157 21 0 162 163 153 0 +-.0392819536
326147 .00855013240719107 -.0277272716435519 0 0 1 1 0 0 .001363636165981656 16
 162 19 164 ?165 91 108 157 0 0 1 31 163 16 0 108 0 157 0 +-.00838025094421482 .
1036557826128872 -.0277272716435519 0 0 1 1 0 0 .001363638680207432 16 108 14 16
6 ?167 162 59 163 0 0 1 81 1 166 305 31 108 0 0 131 124 168 17 167 0 169 167 167
 0 170 108 0 0 +15 169 220 0 167 18 171 17 170 0 172 170 170 0 167 108 0 0 -15 1
72 6 0 170 90 173 14 90 1 174 ?146 141 172 5 147 +0 0 146 141 23 15 173 7 0 175
 90 35 17 175 0 173 175 175 0 165 162 0 0 -17 165 0 176 165 165 0 175 162 0 0 +1
5 176 216 0 165 150 177 14 150 217 178 ?18 83 176 5 19 +0 0 18 83 23 15 177 218
 0 179 150 0 17 179 0 177 179 179 0 128 125 0 0 -17 128 0 180 128 128 0 179 125
 0 0 +15 180 151 0 128 146 56 14 146 140 181 ?0 90 182 5 142 -0 0 0 90 23 15 56
 152 0 57 146 0 17 57 0 56 53 96 21 65 119 0 0 +17 96 0 56 57 50 46 85 97 0 65 -
17 65 0 64 69 61 46 57 119 0 0 -15 64 214 0 65 16 0 14 16 215 183 ?95 0 64 5 151
 +0 0 95 0 23 81 1 183 321 184 16 185 0 0 152 186 13 23 106 0 0 0 0 0 0 9 16 80
 7 CCCCCDI12 legal_owners0 16 1 lCZ1 184 0 187 8001 0 0 0 0 3 5 0 0 0 FFFFTFTFFF
FFFFFF2 81 1 185 316 31 16 0 183 188 189 190 81 1 152 322 184 95 191 0 183 149 1
92 83 255 3 186 1 1 1 81 1 191 314 31 95 0 152 193 188 194 81 1 149 323 184 83 1
89 0 152 178 195 83 3 192 1 1 1 81 1 189 317 31 83 0 149 185 0 196 81 1 178 324
 184 150 193 0 149 197 198 83 3 195 1 1 1 81 1 193 313 31 150 0 178 199 191 200
 81 1 197 325 184 18 188 0 178 144 201 83 3 198 1 1 1 14 18 221 197 ?141 150 169
 5 6 +0 0 141 150 23 81 1 188 315 31 18 0 197 191 185 202 81 1 144 326 184 141 2
03 0 197 174 204 83 3 201 1 1 1 81 1 203 310 31 141 0 144 87 205 206 81 1 174 32
7 184 90 199 0 144 181 207 83 3 204 1 1 1 81 1 199 312 31 90 0 174 205 193 208 8
1 1 181 328 184 146 205 0 174 0 209 83 3 207 1 1 1 81 1 205 311 31 146 0 181 203
 199 210 83 3 209 1 1 1 80 1 31 211 212 9000 0 0 0 0 3 6 0 0 0 FFTFTFTTFFFFFFFF1
 82 255 3 210 30 1 2 79 255 9 212 BTI/DetId82 3 208 30 2 2 81 1 87 309 31 80 0 0
 114 203 213 82 3 206 30 0 2 81 1 114 308 31 109 0 0 161 87 214 82 3 213 30 15 1
 81 1 161 307 31 91 0 0 124 114 215 82 3 214 30 14 1 81 1 124 306 31 119 0 0 166
 161 216 82 3 215 30 13 1 82 3 216 30 12 1 82 3 202 30 5 2 82 3 200 30 3 2 82 3
 196 30 7 2 82 3 194 30 4 2 82 3 190 30 6 2 79 15 187 SDL/TYSA_COLOUR17 50 0 56
 96 53 48 82 109 0 78 -17 82 0 77 79 78 51 50 109 0 0 +15 182 150 0 132 146 180
 17 132 0 182 132 132 0 217 129 0 0 +17 217 0 171 217 217 0 132 129 0 0 -15 171
 222 0 217 18 0 51 19 228 0 150 151 6 0 --.0392819536326147 .00855013240719107 -
.0277272716435519 0 0 -1 .001363636165981656 -1 0 0 50 147 3 0 90 0 142 0 +-.023
83110370653285 .0561029570537841 -.0277272716435519 0 0 1 1 0 0 81 1 131 304 31
 129 0 0 93 166 218 82 3 168 30 11 1 81 1 93 303 31 88 0 0 118 131 219 82 3 218
 30 10 1 81 1 118 302 31 97 0 0 164 93 220 82 3 219 30 9 1 81 1 164 301 31 162 0
 0 127 118 221 82 3 220 30 8 1 81 1 127 300 31 125 0 0 136 164 222 82 3 221 30 7
 1 81 1 136 299 31 39 0 0 99 127 223 82 3 222 30 6 1 81 1 99 298 31 59 0 0 98 13
6 224 82 3 223 30 5 1 82 3 224 30 4 1 17 66 0 64 61 69 11 36 91 0 0 +15 145 208
 0 58 141 0 17 58 0 145 40 60 21 53 59 0 57 +17 40 0 145 38 58 11 61 67 0 66 -17
 60 0 145 58 38 51 79 86 0 82 +17 38 0 145 60 40 29 28 39 0 37 -81 1 104 295 31
 67 0 0 75 24 225 81 1 75 294 31 86 0 0 73 104 226 81 1 24 296 31 10 0 0 104 98
 227 82 3 225 30 1 1 82 3 227 30 2 1 82 3 226 30 0 1 82 3 100 30 3 1 17 25 0 92
 85 72 46 69 10 0 96 +81 1 49 292 31 48 0 0 68 73 228 82 3 76 30 7 0 82 3 228 30
 6 0 81 1 33 290 31 46 0 0 27 68 229 82 3 71 30 5 0 82 3 229 30 4 0 81 1 41 287
 31 29 0 0 52 32 230 82 3 63 30 2 0 82 3 230 30 1 0 81 1 54 285 31 1 0 231 0 52
 232 82 3 55 30 0 0 81 1 231 318 233 1 54 13 0 0 234 82 3 232 29 0 3 80 1 233 23
5 236 8038 0 0 0 0 0 0 0 0 0 TTTTTTTTTTTTTFTF10 81 1 13 319 235 1 231 2 0 0 237
 98 255 6 234 116 101 110 100 111 110 80 1 235 238 239 8017 0 0 0 0 0 0 0 0 0 TT
TTTTTTTTTTTFTF3 84 255 6 237 tendon79 13 239 SDL/TYSA_NAME79 14 236 SDL/TYSA_UNA
ME82 3 34 30 3 0 19 17 235 0 1 0 9 5 0 S0 74 4 CI16 index_map_offset0 0 1 dCCZ20
 15 5 0 0 189 231 13 2 181 0 0 0 0 0 0 0 0 0 0 0 0 0 0 0 80 1 12 184 240 8040 0
 0 0 0 3 5 0 0 0 TTTFFFFFFFFFFFFF2 83 3 14 1 1 1 79 17 240 SDL/TYSA_COLOUR_21 0
 
